<svg width="34" height="13" viewBox="0 0 34 13" fill="none" xmlns="http://www.w3.org/2000/svg">
<g filter="url(#filter0_d_3_162)">
<path d="M3.02273 11.7955H0L3.92614 0.159107H7.67045L11.5966 11.7955H8.57386L5.84091 3.09093H5.75L3.02273 11.7955ZM2.61932 7.21593H8.9375V9.35229H2.61932V7.21593ZM18.7798 3.64774C18.742 3.23108 18.5734 2.90721 18.2741 2.67615C17.9787 2.4413 17.5563 2.32388 17.0071 2.32388C16.6435 2.32388 16.3404 2.37123 16.098 2.46593C15.8556 2.56062 15.6738 2.6913 15.5526 2.85797C15.4313 3.02085 15.3688 3.20835 15.3651 3.42047C15.3575 3.59471 15.3916 3.74812 15.4673 3.8807C15.5469 4.01327 15.6605 4.1307 15.8082 4.23297C15.9598 4.33146 16.1416 4.41858 16.3537 4.49433C16.5658 4.57009 16.8045 4.63638 17.0696 4.6932L18.0696 4.92047C18.6454 5.04547 19.1529 5.21214 19.5923 5.42047C20.0355 5.6288 20.4067 5.87691 20.706 6.16479C21.009 6.45267 21.2382 6.78411 21.3935 7.15911C21.5488 7.53411 21.6283 7.95456 21.6321 8.42047C21.6283 9.15532 21.4427 9.786 21.0753 10.3125C20.7079 10.839 20.1795 11.2424 19.4901 11.5227C18.8045 11.803 17.9768 11.9432 17.0071 11.9432C16.0336 11.9432 15.1851 11.7974 14.4616 11.5057C13.7382 11.214 13.1757 10.7708 12.7741 10.1762C12.3726 9.58146 12.1662 8.82956 12.1548 7.92047H14.848C14.8707 8.29547 14.9711 8.60797 15.1491 8.85797C15.3272 9.10797 15.5715 9.29737 15.8821 9.42615C16.1965 9.55494 16.5601 9.61933 16.973 9.61933C17.3518 9.61933 17.6738 9.5682 17.9389 9.46593C18.2079 9.36365 18.4143 9.22161 18.5582 9.03979C18.7022 8.85797 18.776 8.64964 18.7798 8.41479C18.776 8.19509 18.7079 8.00759 18.5753 7.85229C18.4427 7.6932 18.2382 7.55683 17.9616 7.4432C17.6889 7.32577 17.3404 7.21782 16.9162 7.11933L15.7003 6.83524C14.6927 6.60418 13.8991 6.23108 13.3196 5.71593C12.7401 5.19699 12.4522 4.49623 12.456 3.61365C12.4522 2.89396 12.6454 2.26327 13.0355 1.72161C13.4257 1.17994 13.9654 0.757592 14.6548 0.454562C15.3442 0.151532 16.1302 1.62125e-05 17.0128 1.62125e-05C17.9143 1.62125e-05 18.6965 0.153425 19.3594 0.460243C20.026 0.763274 20.5431 1.18941 20.9105 1.73865C21.2779 2.2879 21.4654 2.92426 21.473 3.64774H18.7798ZM30.6889 3.96024C30.6245 3.72161 30.5298 3.51138 30.4048 3.32956C30.2798 3.14396 30.1264 2.98676 29.9446 2.85797C29.7628 2.72918 29.5545 2.63259 29.3196 2.5682C29.0848 2.50002 28.8272 2.46593 28.5469 2.46593C27.9825 2.46593 27.4938 2.60229 27.081 2.87502C26.6719 3.14774 26.3556 3.54547 26.1321 4.0682C25.9086 4.58714 25.7969 5.21782 25.7969 5.96024C25.7969 6.70646 25.9048 7.34282 26.1207 7.86933C26.3366 8.39585 26.6491 8.79737 27.0582 9.07388C27.4673 9.3504 27.9635 9.48865 28.5469 9.48865C29.062 9.48865 29.4976 9.40532 29.8537 9.23865C30.2135 9.0682 30.4863 8.82767 30.6719 8.51706C30.8575 8.20646 30.9503 7.84093 30.9503 7.42047L31.473 7.48297H28.6435V5.43183H33.6605V6.97161C33.6605 8.01327 33.4389 8.90532 32.9957 9.64774C32.5563 10.3902 31.9503 10.9602 31.1776 11.358C30.4086 11.7557 29.5241 11.9546 28.5241 11.9546C27.4143 11.9546 26.4389 11.714 25.598 11.233C24.7571 10.7519 24.1018 10.0663 23.6321 9.17615C23.1624 8.28221 22.9276 7.22161 22.9276 5.99433C22.9276 5.03979 23.0696 4.1932 23.3537 3.45456C23.6378 2.71214 24.0336 2.08335 24.5412 1.5682C25.0526 1.05305 25.6435 0.662895 26.3139 0.397743C26.9882 0.132592 27.7135 1.62125e-05 28.4901 1.62125e-05C29.1643 1.62125e-05 29.7912 0.0966072 30.3707 0.289789C30.9541 0.482971 31.4692 0.755699 31.9162 1.10797C32.367 1.46024 32.7325 1.8788 33.0128 2.36365C33.2931 2.8485 33.4673 3.3807 33.5355 3.96024H30.6889Z" fill="#04C5A8"/>
</g>
<defs>
<filter id="filter0_d_3_162" x="0" y="0" width="33.6605" height="12.9546" filterUnits="userSpaceOnUse" color-interpolation-filters="sRGB">
<feFlood flood-opacity="0" result="BackgroundImageFix"/>
<feColorMatrix in="SourceAlpha" type="matrix" values="0 0 0 0 0 0 0 0 0 0 0 0 0 0 0 0 0 0 127 0" result="hardAlpha"/>
<feOffset dy="1"/>
<feComposite in2="hardAlpha" operator="out"/>
<feColorMatrix type="matrix" values="0 0 0 0 0 0 0 0 0 0 0 0 0 0 0 0 0 0 0.25 0"/>
<feBlend mode="normal" in2="BackgroundImageFix" result="effect1_dropShadow_3_162"/>
<feBlend mode="normal" in="SourceGraphic" in2="effect1_dropShadow_3_162" result="shape"/>
</filter>
</defs>
</svg>
