<svg width="60" height="60" viewBox="0 0 60 60" fill="none" xmlns="http://www.w3.org/2000/svg">
<path d="M30 42.2727C32.2593 42.2727 34.0909 44.1044 34.0909 46.3636C34.0909 48.6229 32.2593 50.4545 30 50.4545C27.7407 50.4545 25.9091 48.6229 25.9091 46.3636C25.9091 44.1044 27.7407 42.2727 30 42.2727Z" fill="#8D96AA"/>
<path d="M29.8437 12.2727C31.7872 12.2727 33.4877 12.6704 34.9451 13.4658C36.4026 14.2305 37.5262 15.3165 38.3157 16.7237C39.1355 18.1002 39.5455 19.9828 39.5455 21.8182C39.5455 22.9195 39.3935 23.6371 39.09 24.5242C38.7864 25.4113 38.3613 26.1914 37.8147 26.8645C37.2985 27.5373 36.7216 28.1187 36.0837 28.608C35.4461 29.0975 34.5352 29.4226 34.5352 29.4226C34.0341 29.6261 32.7272 30 32.7272 30V35.4546C32.7272 35.4657 32.7217 38.1818 30 38.1818C27.2783 38.1818 27.2728 35.4657 27.2728 35.4546V30C27.2728 29.2658 27.7075 28.2857 28.0416 27.8575C28.3754 27.429 28.6647 27.1396 29.181 26.8645C29.7276 26.5585 30.7868 26.1537 31.3637 25.9091C31.9692 25.6348 32.7088 25.352 32.7133 25.3503C33.2599 24.9832 33.7001 24.5089 34.0342 23.9277C34.3683 23.3465 34.5352 22.5817 34.5352 21.6334C34.5351 20.2262 34.2966 19.6086 33.5073 18.8744C32.748 18.1097 31.5791 17.7273 30 17.7273C29.2713 17.7273 28.6184 17.8496 28.0416 18.0943C27.4645 18.3085 26.9788 18.6144 26.5839 19.0121C26.2195 19.3792 24.9248 21.2205 24.9248 21.2205C24.6818 21.5263 24.363 21.7098 23.9682 21.771C23.6038 21.8322 23.0876 21.7558 22.4196 21.5417C21.7819 21.2663 21.3113 21.0063 21.0076 20.7616C20.704 20.5169 20.5218 20.2109 20.4611 19.8438C20.4307 19.4768 20.5066 19.0026 20.6888 18.4215C20.7799 18.0238 20.962 17.5649 21.2353 17.0449C21.5086 16.5248 21.8731 15.9895 22.3285 15.4389C22.8143 14.8576 23.4065 14.3376 24.1049 13.8787C24.8337 13.3893 25.6685 13.0069 26.61 12.7316C27.5512 12.4257 28.6293 12.2727 29.8437 12.2727Z" fill="#8D96AA"/>
<path fill-rule="evenodd" clip-rule="evenodd" d="M30 0C46.5684 0 60 13.4315 60 30C60 46.5684 46.5684 60 30 60C13.4315 60 4.21929e-06 46.5684 0 30C0 13.4315 13.4315 1.1814e-06 30 0ZM30 5.47318C16.4542 5.47319 5.47318 16.4542 5.47318 30C5.47319 43.5458 16.4542 54.5269 30 54.5269C43.5458 54.5269 54.5269 43.5458 54.5269 30C54.5269 16.4542 43.5458 5.47318 30 5.47318Z" fill="#8D96AA"/>
</svg>
